<?xml version="1.0" encoding="UTF-8" standalone="no"?>
<svg
   xmlns:ns0="http://www.iki.fi/pav/software/textext/"
   xmlns:dc="http://purl.org/dc/elements/1.1/"
   xmlns:cc="http://creativecommons.org/ns#"
   xmlns:rdf="http://www.w3.org/1999/02/22-rdf-syntax-ns#"
   xmlns:svg="http://www.w3.org/2000/svg"
   xmlns="http://www.w3.org/2000/svg"
   xmlns:xlink="http://www.w3.org/1999/xlink"
   xmlns:sodipodi="http://sodipodi.sourceforge.net/DTD/sodipodi-0.dtd"
   xmlns:inkscape="http://www.inkscape.org/namespaces/inkscape"
   version="1.1"
   width="100%"
   height="100%"
   viewBox="-105 0 215.37117 205.71099"
   id="svg3099"
   inkscape:version="0.48.2 r9819"
   sodipodi:docname="pendulum.svg">
  <sodipodi:namedview
     pagecolor="#ffffff"
     bordercolor="#666666"
     borderopacity="1"
     objecttolerance="10"
     gridtolerance="10"
     guidetolerance="10"
     inkscape:pageopacity="0"
     inkscape:pageshadow="2"
     inkscape:window-width="2454"
     inkscape:window-height="1386"
     id="namedview3171"
     showgrid="false"
     inkscape:zoom="3.9933333"
     inkscape:cx="64.021385"
     inkscape:cy="111.28305"
     inkscape:window-x="0"
     inkscape:window-y="0"
     inkscape:window-maximized="0"
     inkscape:current-layer="svg3099"
     inkscape:snap-bbox="true"
     fit-margin-top="5"
     fit-margin-left="5"
     fit-margin-right="5"
     fit-margin-bottom="5" />
  <metadata
     id="metadata3173">
    <rdf:RDF>
      <cc:Work
         rdf:about="">
        <dc:format>image/svg+xml</dc:format>
        <dc:type
           rdf:resource="http://purl.org/dc/dcmitype/StillImage" />
        <dc:title>Simple pendulum</dc:title>
      </cc:Work>
    </rdf:RDF>
  </metadata>
  <defs
     id="defs3101">
    <marker
       inkscape:stockid="Arrow1Mend"
       orient="auto"
       refY="0"
       refX="0"
       id="Arrow1Mend"
       style="overflow:visible">
      <path
         id="path3868"
         d="M 0,0 5,-5 -12.5,0 5,5 0,0 z"
         style="fill-rule:evenodd;stroke:#000000;stroke-width:1pt;marker-start:none"
         transform="matrix(-0.4,0,0,-0.4,-4,0)"
         inkscape:connector-curvature="0" />
    </marker>
    <marker
       inkscape:stockid="Arrow1Mstart"
       orient="auto"
       refY="0"
       refX="0"
       id="Arrow1Mstart"
       style="overflow:visible">
      <path
         id="path3865"
         d="M 0,0 5,-5 -12.5,0 5,5 0,0 z"
         style="fill-rule:evenodd;stroke:#000000;stroke-width:1pt;marker-start:none"
         transform="matrix(0.4,0,0,0.4,4,0)"
         inkscape:connector-curvature="0" />
    </marker>
    <marker
       inkscape:stockid="TriangleInM"
       orient="auto"
       refY="0"
       refX="0"
       id="TriangleInM"
       style="overflow:visible">
      <path
         id="path3996"
         d="m 5.77,0 -8.65,5 0,-10 8.65,5 z"
         style="fill-rule:evenodd;stroke:#000000;stroke-width:1pt;marker-start:none"
         transform="scale(-0.4,-0.4)"
         inkscape:connector-curvature="0" />
    </marker>
    <marker
       inkscape:stockid="Arrow2Lstart"
       orient="auto"
       refY="0"
       refX="0"
       id="Arrow2Lstart"
       style="overflow:visible">
      <path
         id="path3877"
         style="font-size:12px;fill-rule:evenodd;stroke-width:0.625;stroke-linejoin:round"
         d="M 8.7185878,4.0337352 -2.2072895,0.01601326 8.7185884,-4.0017078 c -1.7454984,2.3720609 -1.7354408,5.6174519 -6e-7,8.035443 z"
         transform="matrix(1.1,0,0,1.1,1.1,0)"
         inkscape:connector-curvature="0" />
    </marker>
    <marker
       id="EndArrow"
       viewBox="0 0 10 10"
       refX="10"
       refY="5"
       markerUnits="strokeWidth"
       orient="auto"
       markerWidth="10"
       markerHeight="10">
      <polyline
         points="10,5 0,10 4,5 0,0 10,5"
         id="polyline3104"
         style="fill:#000000" />
    </marker>
    <radialGradient
       inkscape:collect="always"
       xlink:href="#light"
       id="radialGradient3157"
       gradientUnits="userSpaceOnUse"
       cx="0"
       cy="210"
       fx="-3.9999998"
       fy="204"
       r="25.999998" />
  </defs>
  <title
     id="title3106">Simple pendulum</title>
  <defs
     id="defs3108">
    <marker
       id="marker3110"
       viewBox="0 0 10 10"
       refX="10"
       refY="5"
       markerUnits="strokeWidth"
       orient="auto"
       markerWidth="10"
       markerHeight="10">
      <polyline
         points="10,5 0,10 4,5 0,0 10,5"
         id="polyline3112"
         style="fill:#8773ff" />
    </marker>
    <marker
       id="StartArrow"
       viewBox="0 0 10 10"
       refX="0"
       refY="5"
       markerUnits="strokeWidth"
       orient="auto"
       markerWidth="10"
       markerHeight="10">
      <polyline
         points="0,5 10,0 6,5 10,10 0,5"
         id="polyline3115"
         style="fill:#8773ff" />
    </marker>
    <radialGradient
       id="light"
       cx="0.5"
       cy="0.5"
       fx="0.40000001"
       fy="0.34999999"
       r="0.64999998">
      <stop
         stop-color="rgb(255,255,255)"
         offset="0%"
         id="stop3118" />
      <stop
         stop-color="rgb(190,190,190)"
         offset="40%"
         id="stop3120" />
      <stop
         stop-color="rgb(80,80,80)"
         offset="100%"
         id="stop3122" />
    </radialGradient>
  </defs>
  <rect
     style="fill:none;stroke:#000000;stroke-width:0.64658678;stroke-linecap:butt;stroke-linejoin:round;stroke-miterlimit:4;stroke-opacity:1;stroke-dasharray:none;stroke-dashoffset:2"
     id="rect11401"
     width="204.72458"
     height="22.629377"
     x="-99.676704"
     y="5.3232932" />
  <g
     id="g12177"
     transform="matrix(0.80187016,0,0,0.80184557,-29.005008,-22.91145)">
    <g
       transform="translate(31.171681,55.864909)"
       id="g3126"
       style="fill:none;stroke:#808080;stroke-width:0.74826235">
      <path
         inkscape:connector-curvature="0"
         id="path3128"
         style="stroke-width:0.74826235;stroke-dasharray:6.23551906, 4.98841525"
         d="m -102.5,182.5 a 202,202 0 0 0 205,0" />
      <path
         style="stroke:#000000;stroke-width:0.74826235"
         inkscape:connector-curvature="0"
         id="path3130"
         d="M 0,40 A 35,35 0 0 0 9.1,38.8" />
      <path
         inkscape:connector-curvature="0"
         id="path3132"
         d="M 0,60 A 55,55 0 0 0 27.5,52.6 M 0,63 a 58,58 0 0 0 29,-7.8"
         style="stroke-width:0.74826235" />
    </g>
    <g
       transform="matrix(0.96592583,-0.25881905,0.25881905,0.96592583,29.877586,56.03528)"
       id="pendulum">
      <line
         id="line3135"
         style="stroke:#000000;stroke-width:1.24710381"
         y2="190"
         y1="8"
         x2="0"
         x1="0" />
      <circle
         style="fill:url(#radialGradient3157)"
         sodipodi:ry="20"
         sodipodi:rx="20"
         sodipodi:cy="210"
         sodipodi:cx="0"
         d="m 20,210 c 0,11.04569 -8.954305,20 -20,20 -11.045695,0 -20,-8.95431 -20,-20 0,-11.04569 8.954305,-20 20,-20 11.045695,0 20,8.95431 20,20 z"
         id="circle3137"
         r="20"
         cy="210"
         cx="0" />
    </g>
    <use
       height="225"
       width="230"
       y="0"
       x="0"
       style="opacity:0.27586209"
       id="use3139"
       transform="matrix(0.96592583,-0.25881905,0.25881905,0.96592583,-14.690849,10.141747)"
       xlink:href="#pendulum" />
    <path
       sodipodi:nodetypes="cc"
       d="m 31.171681,63.864909 0,195.000001"
       id="path3143"
       inkscape:connector-curvature="0"
       style="fill:none;stroke:#7559a5;stroke-width:0.74826235;stroke-opacity:1;stroke-dasharray:4.98841525, 2.49420762" />
  </g>
  <text
     font-size="12"
     id="text3153"
     style="font-size:12px;fill:#000000"
     y="29.444635"
     x="-45.911839" />
  <g
     id="g13813"
     transform="matrix(0.11010429,0,0,0.10284579,-6.3640599,14.805809)"
     inkscape:label="Gear24">
    <path
       id="path13815"
       d="m 69.802,-5.621 1.754,-0.141 4.675,0.766 6.498,2.719 0,4.554 -6.498,2.719 -4.675,0.766 -1.754,-0.141 -0.923,7.016 1.73,0.317 4.317,1.95 5.574,4.308 -1.179,4.4 -6.981,0.944 -4.714,-0.47 -1.657,-0.59 -2.708,6.537 1.589,0.755 3.666,3 4.268,5.604 -2.277,3.945 -6.987,-0.895 -4.432,-1.674 -1.448,-0.999 -4.308,5.614 1.34,1.14 2.764,3.847 2.673,6.518 -3.221,3.221 -6.518,-2.673 -3.847,-2.764 -1.14,-1.34 -5.614,4.308 0.999,1.448 1.674,4.432 0.895,6.987 -3.945,2.277 -5.604,-4.268 -3,-3.666 -0.755,-1.589 -6.537,2.708 0.59,1.657 0.47,4.714 -0.944,6.981 -4.4,1.179 -4.308,-5.574 -1.95,-4.317 -0.317,-1.73 -7.016,0.923 0.141,1.754 -0.766,4.675 -2.719,6.498 -4.554,0 -2.719,-6.498 -0.766,-4.675 0.141,-1.754 -7.016,-0.923 -0.317,1.73 -1.95,4.317 -4.308,5.574 -4.4,-1.179 -0.944,-6.981 0.47,-4.714 0.59,-1.657 -6.537,-2.708 -0.755,1.589 -3,3.666 -5.604,4.268 -3.945,-2.277 0.895,-6.987 1.674,-4.432 0.999,-1.448 -5.614,-4.308 -1.14,1.34 -3.847,2.764 -6.518,2.673 -3.221,-3.221 2.673,-6.518 2.764,-3.847 1.34,-1.14 -4.308,-5.614 -1.448,0.999 -4.432,1.674 -6.987,0.895 -2.277,-3.945 4.268,-5.604 3.666,-3 1.589,-0.755 -2.708,-6.537 -1.657,0.59 -4.714,0.47 -6.981,-0.944 -1.179,-4.4 5.574,-4.308 4.317,-1.95 1.73,-0.317 -0.923,-7.016 -1.754,0.141 -4.675,-0.766 -6.498,-2.719 0,-4.554 6.498,-2.719 4.675,-0.766 1.754,0.141 0.923,-7.016 -1.73,-0.317 -4.317,-1.95 -5.574,-4.308 1.179,-4.4 6.981,-0.944 4.714,0.47 1.657,0.59 2.708,-6.537 -1.589,-0.755 -3.666,-3 -4.268,-5.604 2.277,-3.945 6.987,0.895 4.432,1.674 1.448,0.999 4.308,-5.614 -1.34,-1.14 -2.764,-3.847 -2.673,-6.518 3.221,-3.221 6.518,2.673 3.847,2.764 1.14,1.34 5.614,-4.308 -0.999,-1.448 -1.674,-4.432 -0.895,-6.987 3.945,-2.277 5.604,4.268 3,3.666 0.755,1.589 6.537,-2.708 -0.59,-1.657 -0.47,-4.714 0.944,-6.981 4.4,-1.179 4.308,5.574 1.95,4.317 0.317,1.73 7.016,-0.923 -0.141,-1.754 0.766,-4.675 2.719,-6.498 4.554,0 2.719,6.498 0.766,4.675 -0.141,1.754 7.016,0.923 0.317,-1.73 1.95,-4.317 4.308,-5.574 4.4,1.179 0.944,6.981 -0.47,4.714 -0.59,1.657 6.537,2.708 0.755,-1.589 3,-3.666 5.604,-4.268 3.945,2.277 -0.895,6.987 -1.674,4.432 -0.999,1.448 5.614,4.308 1.14,-1.34 3.847,-2.764 6.518,-2.673 3.221,3.221 -2.673,6.518 -2.764,3.847 -1.34,1.14 4.308,5.614 1.448,-0.999 4.432,-1.674 6.987,-0.895 2.277,3.945 -4.268,5.604 -3.666,3 -1.589,0.755 2.708,6.537 1.657,-0.59 4.714,-0.47 6.981,0.944 1.179,4.4 -5.574,4.308 -4.317,1.95 -1.73,0.317 z"
       style="fill:none;stroke:#000000;stroke-width:1.24710381"
       inkscape:connector-curvature="0" />
  </g>
  <g
     style="fill:#000000;fill-opacity:1"
     inkscape:label="Gear10"
     transform="matrix(0.05426705,0,0,0.05426539,-3.6719499,27.794718)"
     id="g14156">
    <path
       inkscape:connector-curvature="0"
       style="fill:#000000;fill-opacity:1;stroke:#000000;stroke-width:1.24710381"
       d="m 62.86,-10.072 14.522,-2.326 1.216,-0.051 16.656,5.691 0,13.516 L 78.598,12.449 77.382,12.398 62.86,10.072 56.775,28.8 69.891,35.453 70.904,36.127 81.034,50.521 73.09,61.456 56.27,56.27 55.315,55.514 44.935,45.097 29.004,56.671 l 6.7,13.092 0.423,1.141 -0.265,17.599 -12.854,4.177 -10.559,-14.082 -0.328,-1.172 -2.275,-14.53 -19.692,0 -2.275,14.53 -0.328,1.172 -10.559,14.082 -12.854,-4.177 -0.265,-17.599 0.423,-1.141 6.7,-13.092 -15.931,-11.574 -10.38,10.417 -0.955,0.756 -16.82,5.186 -7.944,-10.935 10.13,-14.394 1.013,-0.674 13.116,-6.653 -6.085,-18.728 -14.522,2.326 -1.216,0.051 -16.656,-5.691 0,-13.516 16.656,-5.691 1.216,0.051 14.522,2.326 6.085,-18.728 -13.116,-6.653 -1.013,-0.674 -10.13,-14.394 7.944,-10.935 16.82,5.186 0.955,0.756 10.38,10.417 15.931,-11.574 -6.7,-13.092 -0.423,-1.141 0.265,-17.599 12.854,-4.177 10.559,14.082 0.328,1.172 2.275,14.53 19.692,0 2.275,-14.53 0.328,-1.172 10.559,-14.082 12.854,4.177 0.265,17.599 -0.423,1.141 -6.7,13.092 15.931,11.574 10.38,-10.417 0.955,-0.756 16.82,-5.186 7.944,10.935 -10.13,14.394 -1.013,0.674 -13.116,6.653 z"
       id="path14158" />
  </g>
  <g
     id="g15638"
     ns0:preamble=""
     ns0:text="$ F_\\mathrm{D} $\n"
     transform="matrix(0.80187016,0,0,0.80184557,-190.29854,-91.182108)">
    <defs
       id="defs15640">
      <g
         id="g15642">
        <symbol
           id="textext-04c1f517-0"
           overflow="visible"
           style="overflow:visible">
          <path
             id="path15645"
             d=""
             style="stroke:none"
             inkscape:connector-curvature="0" />
        </symbol>
        <symbol
           id="textext-04c1f517-1"
           overflow="visible"
           style="overflow:visible">
          <path
             id="path15648"
             d="m 3.015625,-3.234375 0.96875,0 c 0.75,0 0.828125,0.15625 0.828125,0.4375 0,0.078125 0,0.1875 -0.0625,0.5 C 4.71875,-2.25 4.71875,-2.21875 4.71875,-2.1875 c 0,0.078125 0.0625,0.109375 0.109375,0.109375 0.109375,0 0.109375,-0.03125 0.15625,-0.203125 L 5.53125,-4.453125 C 5.5625,-4.5625 5.5625,-4.578125 5.5625,-4.609375 5.5625,-4.625 5.546875,-4.71875 5.4375,-4.71875 5.34375,-4.71875 5.328125,-4.671875 5.296875,-4.5 5.078125,-3.734375 4.859375,-3.546875 4,-3.546875 l -0.90625,0 0.640625,-2.53125 C 3.828125,-6.4375 3.84375,-6.46875 4.28125,-6.46875 l 1.3125,0 c 1.21875,0 1.453125,0.328125 1.453125,1.09375 0,0.234375 0,0.265625 -0.03125,0.546875 C 7,-4.703125 7,-4.6875 7,-4.65625 c 0,0.046875 0.03125,0.125 0.125,0.125 0.109375,0 0.109375,-0.0625 0.125,-0.25 L 7.453125,-6.515625 C 7.484375,-6.78125 7.4375,-6.78125 7.1875,-6.78125 l -4.890625,0 c -0.1875,0 -0.296875,0 -0.296875,0.203125 0,0.109375 0.09375,0.109375 0.28125,0.109375 0.375,0 0.65625,0 0.65625,0.171875 0,0.046875 0,0.0625 -0.0625,0.25 L 1.5625,-0.78125 c -0.09375,0.390625 -0.109375,0.46875 -0.90625,0.46875 -0.171875,0 -0.28125,0 -0.28125,0.1875 C 0.375,0 0.5,0 0.53125,0 0.8125,0 1.5625,-0.03125 1.84375,-0.03125 2.171875,-0.03125 3,0 3.328125,0 3.421875,0 3.53125,0 3.53125,-0.1875 3.53125,-0.265625 3.484375,-0.296875 3.484375,-0.296875 3.453125,-0.3125 3.421875,-0.3125 3.203125,-0.3125 c -0.21875,0 -0.265625,0 -0.515625,-0.015625 -0.296875,-0.03125 -0.328125,-0.078125 -0.328125,-0.203125 0,-0.015625 0,-0.078125 0.046875,-0.21875 z"
             style="stroke:none"
             inkscape:connector-curvature="0" />
        </symbol>
        <symbol
           id="textext-04c1f517-2"
           overflow="visible"
           style="overflow:visible">
          <path
             id="path15651"
             d=""
             style="stroke:none"
             inkscape:connector-curvature="0" />
        </symbol>
        <symbol
           id="textext-04c1f517-3"
           overflow="visible"
           style="overflow:visible">
          <path
             id="path15654"
             d="m 0.40625,-4.765625 0,0.25 0.171875,0 c 0.53125,0 0.546875,0.078125 0.546875,0.328125 l 0,3.625 c 0,0.234375 -0.015625,0.3125 -0.546875,0.3125 l -0.171875,0 0,0.25 2.75,0 C 4.4375,0 5.5,-1.03125 5.5,-2.34375 5.5,-3.671875 4.453125,-4.765625 3.15625,-4.765625 z M 2.09375,-0.25 C 1.765625,-0.25 1.75,-0.3125 1.75,-0.515625 l 0,-3.71875 c 0,-0.21875 0.015625,-0.28125 0.34375,-0.28125 l 0.859375,0 c 0.59375,0 1.109375,0.25 1.4375,0.65625 0.28125,0.375 0.390625,0.90625 0.390625,1.515625 0,0.8125 -0.203125,1.234375 -0.453125,1.515625 C 4.015625,-0.46875 3.515625,-0.25 2.96875,-0.25 z"
             style="stroke:none"
             inkscape:connector-curvature="0" />
        </symbol>
      </g>
    </defs>
    <g
       id="textext-04c1f517-4">
      <g
         id="g15657"
         style="fill:#000000;fill-opacity:1">
        <use
           id="use15659"
           y="134.765"
           x="223.43201"
           xlink:href="#textext-04c1f517-1"
           width="300"
           height="300" />
      </g>
      <g
         id="g15661"
         style="fill:#000000;fill-opacity:1">
        <use
           id="use15663"
           y="136.259"
           x="229.839"
           xlink:href="#textext-04c1f517-3"
           width="300"
           height="300" />
      </g>
      <g
         transform="translate(11.018364,54.590985)"
         ns0:text="$\\theta$\n"
         ns0:preamble=""
         id="g15764">
        <defs
           id="defs15766">
          <g
             id="g15768">
            <symbol
               style="overflow:visible"
               overflow="visible"
               id="textext-cf23c6fe-0">
              <path
                 inkscape:connector-curvature="0"
                 style="stroke:none"
                 d=""
                 id="path15771" />
            </symbol>
            <symbol
               style="overflow:visible"
               overflow="visible"
               id="textext-cf23c6fe-1">
              <path
                 inkscape:connector-curvature="0"
                 style="stroke:none"
                 d="m 4.53125,-4.984375 c 0,-0.65625 -0.171875,-2.046875 -1.1875,-2.046875 -1.390625,0 -2.921875,2.8125 -2.921875,5.09375 0,0.9375 0.28125,2.046875 1.1875,2.046875 1.40625,0 2.921875,-2.859375 2.921875,-5.09375 z M 1.46875,-3.625 C 1.640625,-4.25 1.84375,-5.046875 2.25,-5.765625 2.515625,-6.25 2.875,-6.8125 3.328125,-6.8125 c 0.484375,0 0.546875,0.640625 0.546875,1.203125 0,0.5 -0.078125,1 -0.3125,1.984375 z m 2,0.328125 C 3.359375,-2.84375 3.15625,-2 2.765625,-1.28125 c -0.34375,0.6875 -0.71875,1.171875 -1.15625,1.171875 -0.328125,0 -0.53125,-0.296875 -0.53125,-1.21875 0,-0.421875 0.0625,-1 0.3125,-1.96875 z"
                 id="path15774" />
            </symbol>
          </g>
        </defs>
        <g
           id="textext-cf23c6fe-2">
          <g
             style="fill:#000000;fill-opacity:1"
             id="g15777">
            <use
               height="300"
               width="300"
               xlink:href="#textext-cf23c6fe-1"
               x="223.43201"
               y="134.765"
               id="use15779" />
          </g>
        </g>
      </g>
      <g
         id="g15899"
         ns0:preamble=""
         ns0:text="$ \\theta_0 $\n"
         transform="translate(29.549249,73.12187)"
         style="opacity:0.53879311;stroke:#ffffff;stroke-width:1.24710381;stroke-opacity:1">
        <defs
           id="defs15901">
          <g
             id="g15903">
            <symbol
               id="textext-0de74772-0"
               overflow="visible"
               style="overflow:visible">
              <path
                 id="path15906"
                 d=""
                 style="stroke:none"
                 inkscape:connector-curvature="0" />
            </symbol>
            <symbol
               id="textext-0de74772-1"
               overflow="visible"
               style="overflow:visible">
              <path
                 id="path15909"
                 d="m 4.53125,-4.984375 c 0,-0.65625 -0.171875,-2.046875 -1.1875,-2.046875 -1.390625,0 -2.921875,2.8125 -2.921875,5.09375 0,0.9375 0.28125,2.046875 1.1875,2.046875 1.40625,0 2.921875,-2.859375 2.921875,-5.09375 z M 1.46875,-3.625 C 1.640625,-4.25 1.84375,-5.046875 2.25,-5.765625 2.515625,-6.25 2.875,-6.8125 3.328125,-6.8125 c 0.484375,0 0.546875,0.640625 0.546875,1.203125 0,0.5 -0.078125,1 -0.3125,1.984375 z m 2,0.328125 C 3.359375,-2.84375 3.15625,-2 2.765625,-1.28125 c -0.34375,0.6875 -0.71875,1.171875 -1.15625,1.171875 -0.328125,0 -0.53125,-0.296875 -0.53125,-1.21875 0,-0.421875 0.0625,-1 0.3125,-1.96875 z"
                 style="stroke:none"
                 inkscape:connector-curvature="0" />
            </symbol>
            <symbol
               id="textext-0de74772-2"
               overflow="visible"
               style="overflow:visible">
              <path
                 id="path15912"
                 d=""
                 style="stroke:none"
                 inkscape:connector-curvature="0" />
            </symbol>
            <symbol
               id="textext-0de74772-3"
               overflow="visible"
               style="overflow:visible">
              <path
                 id="path15915"
                 d="M 3.59375,-2.21875 C 3.59375,-2.984375 3.5,-3.546875 3.1875,-4.03125 2.96875,-4.34375 2.53125,-4.625 1.984375,-4.625 c -1.625,0 -1.625,1.90625 -1.625,2.40625 0,0.5 0,2.359375 1.625,2.359375 1.609375,0 1.609375,-1.859375 1.609375,-2.359375 z M 1.984375,-0.0625 c -0.328125,0 -0.75,-0.1875 -0.890625,-0.75 C 1,-1.21875 1,-1.796875 1,-2.3125 1,-2.828125 1,-3.359375 1.09375,-3.734375 1.25,-4.28125 1.6875,-4.4375 1.984375,-4.4375 c 0.375,0 0.734375,0.234375 0.859375,0.640625 0.109375,0.375 0.125,0.875 0.125,1.484375 0,0.515625 0,1.03125 -0.09375,1.46875 -0.140625,0.640625 -0.609375,0.78125 -0.890625,0.78125 z"
                 style="stroke:none"
                 inkscape:connector-curvature="0" />
            </symbol>
          </g>
        </defs>
        <g
           id="textext-0de74772-4"
           style="stroke:#ffffff;stroke-width:1.24710381;stroke-opacity:1">
          <g
             id="g15918"
             style="fill:#000000;fill-opacity:1;stroke:#ffffff;stroke-width:1.24710381;stroke-opacity:1">
            <use
               id="use15920"
               y="134.765"
               x="223.43201"
               xlink:href="#textext-0de74772-1"
               width="300"
               height="300"
               style="stroke:#ffffff;stroke-width:1.24710381;stroke-opacity:1" />
          </g>
          <g
             id="g15922"
             style="fill:#000000;fill-opacity:1;stroke:#ffffff;stroke-width:1.24710381;stroke-opacity:1">
            <use
               id="use15924"
               y="136.259"
               x="228.10899"
               xlink:href="#textext-0de74772-3"
               width="300"
               height="300"
               style="stroke:#ffffff;stroke-width:1.24710381;stroke-opacity:1" />
          </g>
        </g>
      </g>
    </g>
  </g>
  <g
     transform="matrix(0.80187016,0,0,0.80184557,-190.09774,7.4087541)"
     ns0:text="$ \\ell $\n"
     ns0:preamble=""
     id="g16076">
    <defs
       id="defs16078">
      <g
         id="g16080">
        <symbol
           overflow="visible"
           id="textext-6753d9c7-0"
           style="overflow:visible">
          <path
             style="stroke:none"
             d=""
             id="path16083"
             inkscape:connector-curvature="0" />
        </symbol>
        <symbol
           overflow="visible"
           id="textext-6753d9c7-1"
           style="overflow:visible">
          <path
             style="stroke:none"
             d="m 0.15625,-0.984375 c -0.015625,0.03125 -0.046875,0.0625 -0.046875,0.09375 0,0.046875 0.0625,0.140625 0.125,0.140625 C 0.28125,-0.75 0.3125,-0.78125 0.59375,-1.0625 0.671875,-1.140625 0.875,-1.328125 0.953125,-1.40625 1.046875,-0.625 1.328125,0.125 2.0625,0.125 c 0.40625,0 0.75,-0.234375 0.953125,-0.390625 C 3.15625,-0.359375 3.625,-0.75 3.625,-0.84375 c 0,-0.03125 -0.03125,-0.125 -0.109375,-0.125 -0.03125,0 -0.046875,0.015625 -0.140625,0.09375 -0.640625,0.625 -1,0.78125 -1.296875,0.78125 -0.4375,0 -0.609375,-0.53125 -0.609375,-1.296875 0,-0.0625 0.03125,-0.515625 0.0625,-0.578125 C 1.546875,-2 1.546875,-2.015625 1.75,-2.21875 2.546875,-3.015625 3.96875,-4.703125 3.96875,-6.25 c 0,-0.171875 0,-0.78125 -0.59375,-0.78125 -0.828125,0 -1.5625,1.640625 -1.65625,1.875 -0.484375,1.09375 -0.796875,2.25 -0.796875,3.4375 z M 1.578125,-2.375 C 1.59375,-2.5 2.03125,-4.703125 2.59375,-5.875 c 0.265625,-0.53125 0.484375,-0.9375 0.796875,-0.9375 0.34375,0 0.34375,0.359375 0.34375,0.515625 0,1.671875 -1.6875,3.421875 -2.15625,3.921875 z"
             id="path16086"
             inkscape:connector-curvature="0" />
        </symbol>
      </g>
    </defs>
    <g
       id="textext-6753d9c7-2">
      <g
         style="fill:#000000;fill-opacity:1"
         id="g16089">
        <use
           xlink:href="#textext-6753d9c7-1"
           x="223.43201"
           y="134.765"
           id="use16091"
           width="300"
           height="300" />
      </g>
    </g>
  </g>
  <g
     id="g16263"
     ns0:preamble=""
     ns0:text="$ \\gamma $\n"
     transform="matrix(0.80187016,0,0,0.80184557,-178.25041,-83.752655)">
    <defs
       id="defs16265">
      <g
         id="g16267">
        <symbol
           id="textext-e1e4e16b-0"
           overflow="visible"
           style="overflow:visible">
          <path
             id="path16270"
             d=""
             style="stroke:none"
             inkscape:connector-curvature="0" />
        </symbol>
        <symbol
           id="textext-e1e4e16b-1"
           overflow="visible"
           style="overflow:visible">
          <path
             id="path16273"
             d="M 0.40625,-2.53125 C 0.796875,-3.671875 1.890625,-3.6875 2,-3.6875 c 1.5,0 1.609375,1.75 1.609375,2.53125 0,0.609375 -0.046875,0.78125 -0.125,0.984375 -0.21875,0.71875 -0.515625,1.875 -0.515625,2.140625 0,0.109375 0.046875,0.171875 0.125,0.171875 0.140625,0 0.21875,-0.21875 0.328125,-0.59375 C 3.65625,0.703125 3.75,0.140625 3.78125,-0.171875 c 0.03125,-0.125 0.046875,-0.25 0.09375,-0.390625 0.3125,-0.984375 0.953125,-2.46875 1.34375,-3.25 0.078125,-0.125 0.1875,-0.34375 0.1875,-0.390625 0,-0.09375 -0.09375,-0.09375 -0.109375,-0.09375 -0.03125,0 -0.09375,0 -0.125,0.0625 C 4.65625,-3.28125 4.25,-2.28125 3.859375,-1.28125 3.84375,-1.578125 3.84375,-2.34375 3.453125,-3.3125 3.203125,-3.921875 2.8125,-4.40625 2.125,-4.40625 c -1.25,0 -1.953125,1.515625 -1.953125,1.828125 0,0.09375 0.09375,0.09375 0.203125,0.09375 z"
             style="stroke:none"
             inkscape:connector-curvature="0" />
        </symbol>
      </g>
    </defs>
    <g
       id="textext-e1e4e16b-2">
      <g
         id="g16276"
         style="fill:#000000;fill-opacity:1">
        <use
           id="use16278"
           y="134.765"
           x="223.43201"
           xlink:href="#textext-e1e4e16b-1"
           width="300"
           height="300" />
      </g>
    </g>
  </g>
  <path
     style="fill:none;stroke:#000000;stroke-width:1.10000002;stroke-linecap:butt;stroke-linejoin:miter;stroke-miterlimit:4;stroke-opacity:1;stroke-dasharray:none;marker-start:url(#Arrow1Mstart);marker-end:url(#Arrow1Mend)"
     d="m -92.815008,63.376185 0,-29.048417 27.295493,0"
     id="path3080"
     inkscape:connector-curvature="0" />
  <g
     id="g5164"
     transform="translate(-107.51451,23.058988)">
    <g
       id="content"
       transform="matrix(0.14285714,0,0,-0.14285714,-25,75)"
       xml:space="preserve"
       stroke-miterlimit="10.433"
       font-style="normal"
       font-variant="normal"
       font-weight="normal"
       font-stretch="normal"
       font-size-adjust="none"
       letter-spacing="normal"
       word-spacing="normal"
       style="font-style:normal;font-variant:normal;font-weight:normal;font-stretch:normal;letter-spacing:normal;word-spacing:normal;text-anchor:start;fill:none;stroke:#000000;stroke-linecap:butt;stroke-linejoin:miter;stroke-miterlimit:10.43299961;stroke-opacity:1;stroke-dasharray:none;stroke-dashoffset:0"><path
         d="m 472.16,421.25 0.03,0.13 0.04,0.15 0.04,0.16 0.04,0.18 0.06,0.19 0.06,0.21 0.06,0.22 0.07,0.22 0.08,0.23 0.09,0.24 0.1,0.25 0.1,0.24 0.11,0.25 0.12,0.25 0.13,0.25 0.14,0.25 0.15,0.24 0.15,0.24 0.17,0.23 0.18,0.22 0.18,0.22 0.2,0.2 0.21,0.19 0.22,0.18 0.23,0.16 0.25,0.14 0.12,0.07 0.13,0.06 0.14,0.05 0.13,0.05 0.14,0.05 0.14,0.04 0.15,0.03 0.15,0.03 0.15,0.02 0.16,0.02 0.16,0.01 0.16,0 c 0.25,0 1.44,0 2.48,-0.64 -1.39,-0.25 -2.39,-1.5 -2.39,-2.69 0,-0.79 0.55,-1.75 1.89,-1.75 1.1,0 2.69,0.89 2.69,2.89 0,2.6 -2.94,3.28 -4.63,3.28 -2.89,0 -4.64,-2.64 -5.23,-3.78 -1.25,3.28 -3.94,3.78 -5.37,3.78 -5.19,0 -8.04,-6.42 -8.04,-7.67 0,-0.5 0.5,-0.5 0.61,-0.5 0.39,0 0.55,0.11 0.64,0.55 1.69,5.28 4.99,6.53 6.68,6.53 0.95,0 2.68,-0.44 2.68,-3.33 0,-1.54 -0.84,-4.89 -2.68,-11.86 -0.8,-3.09 -2.54,-5.18 -4.74,-5.18 -0.3,0 -1.44,0 -2.48,0.65 1.25,0.24 2.34,1.28 2.34,2.69 0,1.34 -1.09,1.73 -1.84,1.73 -1.5,0 -2.75,-1.29 -2.75,-2.89 0,-2.28 2.5,-3.28 4.68,-3.28 3.3,0 5.08,3.49 5.24,3.78 0.59,-1.84 2.39,-3.78 5.37,-3.78 5.14,0 7.99,6.42 7.99,7.67 0,0.5 -0.45,0.5 -0.61,0.5 -0.44,0 -0.55,-0.2 -0.64,-0.54 -1.64,-5.33 -5.03,-6.53 -6.63,-6.53 -1.95,0 -2.75,1.59 -2.75,3.29 0,1.1 0.3,2.19 0.86,4.38 z"
         id="path5167"
         inkscape:connector-curvature="0"
         style="fill:#000000;stroke-width:0" /></g>  </g>
  <g
     id="g5381"
     transform="translate(-130.80332,47.599898)">
    <g
       word-spacing="normal"
       letter-spacing="normal"
       font-size-adjust="none"
       font-stretch="normal"
       font-weight="normal"
       font-variant="normal"
       font-style="normal"
       stroke-miterlimit="10.433"
       xml:space="preserve"
       transform="matrix(0.14285714,0,0,-0.14285714,-25,75)"
       id="g5383"
       style="font-style:normal;font-variant:normal;font-weight:normal;font-stretch:normal;letter-spacing:normal;word-spacing:normal;text-anchor:start;fill:none;stroke:#000000;stroke-linecap:butt;stroke-linejoin:miter;stroke-miterlimit:10.43299961;stroke-opacity:1;stroke-dasharray:none;stroke-dashoffset:0"><path
         id="path5385"
         d="m 479.74,425.18 0.01,0.04 0.01,0.03 0.01,0.06 0.02,0.05 0.01,0.06 0.01,0.05 0.02,0.04 0.01,0.05 0.01,0.04 0.01,0.04 0,0.04 0.01,0.04 0.01,0.04 0.01,0.03 0,0.03 0.01,0.03 0,0.03 0.01,0.03 0,0.03 0.01,0.05 0,0.06 0,0.05 0,0.05 0.01,0.05 0,0.03 0,0.03 0,0.03 0,0.03 c 0,0.91 -0.69,1.35 -1.44,1.35 -0.5,0 -1.3,-0.3 -1.75,-1.05 -0.1,-0.25 -0.5,-1.78 -0.69,-2.69 -0.36,-1.29 -0.7,-2.64 -1,-3.98 l -2.25,-8.97 c -0.19,-0.75 -2.33,-4.23 -5.62,-4.23 -2.54,0 -3.1,2.18 -3.1,4.03 0,2.29 0.86,5.39 2.55,9.76 0.8,2.05 1,2.6 1,3.6 0,2.23 -1.59,4.07 -4.09,4.07 -4.74,0 -6.58,-7.21 -6.58,-7.67 0,-0.5 0.5,-0.5 0.61,-0.5 0.5,0 0.54,0.11 0.79,0.91 1.35,4.69 3.33,6.17 5.03,6.17 0.4,0 1.25,0 1.25,-1.59 0,-1.25 -0.5,-2.53 -0.85,-3.49 -1.99,-5.28 -2.9,-8.12 -2.9,-10.47 0,-4.42 3.15,-5.92 6.08,-5.92 1.96,0 3.64,0.85 5.03,2.24 -0.64,-2.58 -1.23,-5.03 -3.23,-7.68 -1.3,-1.68 -3.19,-3.14 -5.48,-3.14 -0.69,0 -2.94,0.16 -3.79,2.1 0.8,0 1.46,0 2.14,0.61 0.5,0.43 1,1.09 1,2.03 0,1.55 -1.34,1.75 -1.84,1.75 -1.14,0 -2.8,-0.8 -2.8,-3.24 0,-2.5 2.21,-4.34 5.29,-4.34 5.14,0 10.26,4.55 11.67,10.17 z"
         inkscape:connector-curvature="0"
         style="fill:#000000;stroke-width:0" /></g>  </g>
</svg>
